<svg id="Capa_1" data-name="Capa 1" xmlns="http://www.w3.org/2000/svg" viewBox="0 0 408.74419 352.43683"><defs><style>.cls-1{fill:#191035;stroke:#191035;stroke-linecap:round;stroke-linejoin:round;stroke-width:2px;}</style></defs><path class="cls-1" d="M142.50563,375.16041h0a20.88292,20.88292,0,0,1-20.86791-20.86786V296.18627a20.88291,20.88291,0,0,1,20.86791-20.86791h0a20.8829,20.8829,0,0,1,20.86789,20.86791v58.10628A20.65579,20.65579,0,0,1,142.50563,375.16041Z" transform="translate(-120.63772 -148.93093)"/><path class="cls-1" d="M216.083,472.48393h0a20.88291,20.88291,0,0,1-20.86791-20.86785V198.68268A20.88293,20.88293,0,0,1,216.083,177.81477h0a20.88293,20.88293,0,0,1,20.86792,20.86791v252.9334A20.76845,20.76845,0,0,1,216.083,472.48393Z" transform="translate(-120.63772 -148.93093)"/><path class="cls-1" d="M289.66031,429.66878h0a20.88292,20.88292,0,0,1-20.86791-20.86785V241.318a20.88293,20.88293,0,0,1,20.86791-20.86791h0A20.88293,20.88293,0,0,1,310.52822,241.318V408.80082A20.76847,20.76847,0,0,1,289.66031,429.66878Z" transform="translate(-120.63772 -148.93093)"/><path class="cls-1" d="M363.23763,500.36776h0a20.88291,20.88291,0,0,1-20.86791-20.86785V170.79884a20.88293,20.88293,0,0,1,20.86791-20.86791h0a20.88293,20.88293,0,0,1,20.86791,20.86791V479.67976A20.84553,20.84553,0,0,1,363.23763,500.36776Z" transform="translate(-120.63772 -148.93093)"/><path class="cls-1" d="M436.63505,429.66878h0a20.88292,20.88292,0,0,1-20.86791-20.86785V241.318a20.88293,20.88293,0,0,1,20.86791-20.86791h0A20.88292,20.88292,0,0,1,457.503,241.318V408.80082A20.65631,20.65631,0,0,1,436.63505,429.66878Z" transform="translate(-120.63772 -148.93093)"/><path class="cls-1" d="M507.514,375.16041h0a20.88291,20.88291,0,0,1-20.86791-20.86786V296.18627A20.88293,20.88293,0,0,1,507.514,275.31836h0a20.88293,20.88293,0,0,1,20.86791,20.86791v58.10628A20.883,20.883,0,0,1,507.514,375.16041Z" transform="translate(-120.63772 -148.93093)"/></svg>