<?xml version="1.0" encoding="utf-8"?>
<!-- Generator: Adobe Illustrator 25.4.1, SVG Export Plug-In . SVG Version: 6.00 Build 0)  -->
<svg version="1.1" id="Layer_1" xmlns="http://www.w3.org/2000/svg" xmlns:xlink="http://www.w3.org/1999/xlink" x="0px" y="0px"
	 viewBox="0 0 64 64" style="enable-background:new 0 0 64 64;" xml:space="preserve">
<style type="text/css">
	.st0{fill:none;stroke:#F2F2F2;stroke-width:2;stroke-linecap:round;stroke-linejoin:round;stroke-miterlimit:10;}
</style>
<g>
	<path class="st0" d="M14.5,50.5h-2.2c-1.1,0-2.1-0.9-2.1-2V35c0-1.1,0.9-2,2.1-2h2.2c1.1,0,2,0.9,2,2v13.4
		C16.5,49.6,15.6,50.5,14.5,50.5z"/>
	<path class="st0" d="M10.2,35.2c0,0-6.4,0.3-6.4,6.9c0,2.6,1.2,6.1,6.4,6.1"/>
	<path class="st0" d="M51,33c0-20.1-19-19.5-19-19.5S13,12.9,13,33"/>
	<path class="st0" d="M49.5,50.5h2.2c1.1,0,2-0.9,2-2V35c0-1.1-0.9-2-2-2h-2.2c-1.1,0-2,0.9-2,2v13.4C47.5,49.6,48.4,50.5,49.5,50.5
		z"/>
	<path class="st0" d="M53.8,35.2c0,0,6.4,0.3,6.4,6.9c0,2.6-1.2,6.1-6.4,6.1"/>
	<path class="st0" d="M17.8,19.2l3.8,1.6c0.9,0.4,1.9,0.1,2.6-0.6c1.1-1.1,3.3-2.6,7.8-2.6c4.8,0,7.4,1.6,8.6,2.8
		c0.7,0.6,1.6,0.8,2.4,0.4l3.4-1.5"/>
</g>
</svg>
