<svg xmlns="http://www.w3.org/2000/svg" viewBox="0 0 1412.80007 197.60912"><defs><style>.cls-1,.cls-2{fill:#191035;}.cls-2{stroke:#191035;stroke-linecap:round;stroke-linejoin:round;stroke-width:2px;}</style></defs><g id="Capa_2" data-name="Capa 2"><path class="cls-1" d="M656.619,478.82741l.53723,81.42416a61.3922,61.3922,0,0,1-9.27085,33.32228,62.502,62.502,0,0,1-25.1259,22.84154,75.12406,75.12406,0,0,1-33.05342,7.79309,70.84083,70.84083,0,0,1-33.05291-7.92752A64.062,64.062,0,0,1,531.93,593.84272a61.19476,61.19476,0,0,1-9.40528-33.59115V478.82741h30.0974v81.42416q0,15.58921,10.74911,24.58917,10.74431,9.006,26.33478,9.002,15.31782,0,26.06643-9.002,10.74505-9.00147,10.74911-24.58917V478.82741Z" transform="translate(-243.19993 -427.1371)"/><path class="cls-1" d="M769.21245,542.78433q0-15.58164-10.7491-24.58816-10.75113-9-26.06643-9.002-15.5877,0-26.33478,9.002-10.75113,9.006-10.74911,24.58816v81.42415h-30.0974V542.78433q0-18.80652,9.27084-33.45571a62.824,62.824,0,0,1,25.1259-22.70812,72.38517,72.38517,0,0,1,32.78455-7.79309,70.89039,70.89039,0,0,1,33.05342,7.92753,66.96638,66.96638,0,0,1,24.99146,22.17038,62.58981,62.58981,0,0,1,9.40528,33.859l-.53722,81.42415H769.21245Z" transform="translate(-243.19993 -427.1371)"/><path class="cls-1" d="M953.55645,553.53394a66.47579,66.47579,0,0,1-9.80858,35.20233,73.21868,73.21868,0,0,1-26.73808,25.79807,71.93431,71.93431,0,0,1-36.27831,9.67414A72.26516,72.26516,0,0,1,817.85,587.66182a68.578,68.578,0,0,1-9.943-36.2778,70.93512,70.93512,0,0,1,9.80858-36.41223,73.61456,73.61456,0,0,1,26.73809-26.7391,70.98387,70.98387,0,0,1,36.27779-9.67313,71.87692,71.87692,0,0,1,42.45921,13.70411V443.35621l30.0969-16.12391ZM917.41309,530.2891a44.826,44.826,0,0,0-15.45225-15.72061,41.38263,41.38263,0,0,0-21.22936-5.64317,40.87148,40.87148,0,0,0-21.09491,5.7776,42.58879,42.58879,0,0,0-15.45175,15.45175,39.0571,39.0571,0,0,0-5.912,21.22935,40.83287,40.83287,0,0,0,5.77761,21.09492,42.56568,42.56568,0,0,0,15.45174,15.45175,39.03454,39.03454,0,0,0,21.22935,5.912,40.844,40.844,0,0,0,21.09543-5.7776A44.79323,44.79323,0,0,0,917.547,572.61337a41.3738,41.3738,0,0,0,5.64367-21.22935A40.8821,40.8821,0,0,0,917.41309,530.2891Z" transform="translate(-243.19993 -427.1371)"/><path class="cls-1" d="M993.32548,491.45808a71.60466,71.60466,0,0,1,41.38424-12.89852q15.3163,0,31.70909,7.38979,16.38824,7.39434,27.947,24.31929a73.10313,73.10313,0,0,1,12.63067,41.11538,81.56674,81.56674,0,0,1-.8066,11.5552l-.53773-.26886v.26886l-111.25219,2.95552a42.61255,42.61255,0,0,0,9.67516,15.45174,40.88761,40.88761,0,0,0,15.04845,9.80858,41.51547,41.51547,0,0,0,15.04845,2.68766,44.26416,44.26416,0,0,0,17.60167-3.62768,39.73669,39.73669,0,0,0,14.37729-10.34631l29.2903,11.28633a71.32888,71.32888,0,0,1-26.33479,24.18588,72.33162,72.33162,0,0,1-34.93447,8.86754q-15.58922,0-31.84352-7.38979-16.2624-7.38826-27.81456-24.58816a72.01319,72.01319,0,0,1-12.89752-41.11538,73.01316,73.01316,0,0,1,4.83657-25.79806A71.23071,71.23071,0,0,1,993.32548,491.45808Zm.80559,46.48968,79.813-1.88106a38.9673,38.9673,0,0,0-9.27186-14.64615,42.313,42.313,0,0,0-29.96246-12.22636,43.06517,43.06517,0,0,0-24.18587,7.25535,40.52778,40.52778,0,0,0-15.85505,19.886Z" transform="translate(-243.19993 -427.1371)"/><path class="cls-1" d="M1194.87038,510.53751q-4.83809-.53521-6.18091-.53773a40.87148,40.87148,0,0,0-21.09491,5.7776,42.60425,42.60425,0,0,0-15.45175,15.45175,39.05284,39.05284,0,0,0-5.912,21.22935l.53774,72.28774h-31.44123l-.26887-77.12431a67.15286,67.15286,0,0,1,9.80858-35.33778,74.048,74.048,0,0,1,63.01588-35.33777l6.98751.53773Z" transform="translate(-243.19993 -427.1371)"/><path class="cls-1" d="M1282.74228,510.53751q-4.83808-.53521-6.1809-.53773a40.87149,40.87149,0,0,0-21.09492,5.7776,42.60425,42.60425,0,0,0-15.45175,15.45175,39.05283,39.05283,0,0,0-5.912,21.22935l.53773,72.28774h-31.44123l-.26887-77.12431a67.15286,67.15286,0,0,1,9.80858-35.33778,74.048,74.048,0,0,1,63.01589-35.33777l6.9875.53773Z" transform="translate(-243.19993 -427.1371)"/><path class="cls-1" d="M1406.08639,610.23449a71.86724,71.86724,0,0,1-42.4587,13.70513,72.26514,72.26514,0,0,1-62.88145-36.54667,68.57081,68.57081,0,0,1-9.943-36.2778,70.93521,70.93521,0,0,1,9.80858-36.41223,73.608,73.608,0,0,1,26.73809-26.73808,70.97488,70.97488,0,0,1,36.2778-9.67415,72.01037,72.01037,0,0,1,36.14437,9.53971,73.56813,73.56813,0,0,1,26.73809,25.66262,67.20607,67.20607,0,0,1,9.943,35.47221l-.26886,74.1688h-30.09791Zm-5.7776-80.21425a44.82025,44.82025,0,0,0-15.45175-15.72062,41.38128,41.38128,0,0,0-21.22935-5.64317,40.87152,40.87152,0,0,0-21.09492,5.7776A42.58894,42.58894,0,0,0,1327.081,529.8858a39.05285,39.05285,0,0,0-5.912,21.22935,40.83293,40.83293,0,0,0,5.7776,21.09492,42.57334,42.57334,0,0,0,15.45175,15.45175,39.03331,39.03331,0,0,0,21.22935,5.912,40.84343,40.84343,0,0,0,21.09491-5.7776,44.77773,44.77773,0,0,0,15.72062-15.45175,41.37332,41.37332,0,0,0,5.64317-21.22935A40.8724,40.8724,0,0,0,1400.30879,530.02024Z" transform="translate(-243.19993 -427.1371)"/><path class="cls-1" d="M1449.88639,427.50116l35.20334,17.59561v26.20642h32.24682l-8.32981,31.17236h-23.917v121.1952h-35.20334Z" transform="translate(-243.19993 -427.1371)"/><path class="cls-1" d="M1542.329,491.45808a71.60154,71.60154,0,0,1,41.38323-12.89852q15.31782,0,31.7101,7.38979,16.38822,7.39434,27.947,24.31929A73.111,73.111,0,0,1,1656,551.384a81.56822,81.56822,0,0,1-.8066,11.5552l-.53773-.26886v.26886l-111.25219,2.95552a42.59639,42.59639,0,0,0,9.67415,15.45174,40.90405,40.90405,0,0,0,15.04845,9.80858,41.52325,41.52325,0,0,0,15.04845,2.68766,44.26057,44.26057,0,0,0,17.60167-3.62768,39.72818,39.72818,0,0,0,14.37729-10.34631l29.29131,11.28633a71.32407,71.32407,0,0,1-26.3358,24.18588,72.32876,72.32876,0,0,1-34.93447,8.86754q-15.5877,0-31.84352-7.38979-16.2624-7.38826-27.81356-24.58816a72.01428,72.01428,0,0,1-12.89852-41.11538,73.03567,73.03567,0,0,1,4.83657-25.79806A71.2327,71.2327,0,0,1,1542.329,491.45808Zm.80558,46.48968,79.812-1.88106a38.96486,38.96486,0,0,0-9.27085-14.64615,42.31736,42.31736,0,0,0-29.96347-12.22636,43.05958,43.05958,0,0,0-24.18486,7.25535,40.52778,40.52778,0,0,0-15.855,19.886Z" transform="translate(-243.19993 -427.1371)"/><path class="cls-2" d="M255.83165,553.36632h0a11.6336,11.6336,0,0,1-11.63172-11.63171V509.39175A11.63359,11.63359,0,0,1,255.83165,497.76h0a11.63359,11.63359,0,0,1,11.63171,11.63172v32.34286A11.60689,11.60689,0,0,1,255.83165,553.36632Z" transform="translate(-243.19993 -427.1371)"/><path class="cls-2" d="M296.71,607.5082h0a11.6336,11.6336,0,0,1-11.63172-11.63171V455.29171A11.63359,11.63359,0,0,1,296.71,443.66h0a11.63358,11.63358,0,0,1,11.63171,11.63171V595.87647A11.60692,11.60692,0,0,1,296.71,607.5082Z" transform="translate(-243.19993 -427.1371)"/><path class="cls-2" d="M337.58838,583.74268h0A11.6336,11.6336,0,0,1,325.95666,572.111V479.0154a11.63359,11.63359,0,0,1,11.63172-11.63172h0a11.63358,11.63358,0,0,1,11.63171,11.63172V572.111A11.60691,11.60691,0,0,1,337.58838,583.74268Z" transform="translate(-243.19993 -427.1371)"/><path class="cls-2" d="M378.46674,623.03109h0A11.63359,11.63359,0,0,1,366.835,611.39938V439.76881a11.63359,11.63359,0,0,1,11.63171-11.63171h0a11.63358,11.63358,0,0,1,11.63171,11.63171V611.4412A11.62474,11.62474,0,0,1,378.46674,623.03109Z" transform="translate(-243.19993 -427.1371)"/><path class="cls-2" d="M419.34511,583.74268h0A11.63359,11.63359,0,0,1,407.7134,572.111V479.0154a11.6336,11.6336,0,0,1,11.63171-11.63172h0a11.63358,11.63358,0,0,1,11.63171,11.63172V572.111A11.63359,11.63359,0,0,1,419.34511,583.74268Z" transform="translate(-243.19993 -427.1371)"/><path class="cls-2" d="M458.67538,553.36632h0a11.63359,11.63359,0,0,1-11.63171-11.63171V509.39175A11.63359,11.63359,0,0,1,458.67538,497.76h0a11.63359,11.63359,0,0,1,11.63171,11.63172v32.34286A11.63358,11.63358,0,0,1,458.67538,553.36632Z" transform="translate(-243.19993 -427.1371)"/></g></svg>