<?xml version="1.0" encoding="utf-8"?>
<!-- Generator: Adobe Illustrator 25.4.1, SVG Export Plug-In . SVG Version: 6.00 Build 0)  -->
<svg version="1.1" id="Capa_1" xmlns="http://www.w3.org/2000/svg" xmlns:xlink="http://www.w3.org/1999/xlink" x="0px" y="0px"
	 viewBox="0 0 1412.8 197.6" style="enable-background:new 0 0 1412.8 197.6;" xml:space="preserve">
<style type="text/css">
	.st0{fill:#F2F2F2;}
	.st1{fill:#F2F2F2;stroke:#F2F2F2;stroke-width:2;stroke-linecap:round;stroke-linejoin:round;}
</style>
<g id="Capa_2_00000170280821650437759300000016947909878161566851_">
	<path class="st0" d="M413.4,51.7l0.5,81.4c0.2,11.8-3.1,23.3-9.3,33.3c-6.1,9.8-14.8,17.7-25.1,22.8c-10.3,5.1-21.6,7.8-33.1,7.8
		c-11.5,0.1-22.8-2.6-33.1-7.9c-10.1-5.2-18.6-12.9-24.7-22.4c-6.3-10-9.6-21.7-9.4-33.6V51.7h30.1v81.4c0,10.4,3.6,18.6,10.7,24.6
		c7.2,6,15.9,9,26.3,9c10.2,0,18.9-3,26.1-9c7.2-6,10.7-14.2,10.7-24.6V51.7H413.4z"/>
	<path class="st0" d="M526,115.6c0-10.4-3.6-18.6-10.7-24.6c-7.2-6-15.9-9-26.1-9c-10.4,0-19.2,3-26.3,9c-7.2,6-10.8,14.2-10.7,24.6
		v81.4H422v-81.4c0-12.5,3.1-23.7,9.3-33.5c6.1-9.7,14.8-17.6,25.1-22.7c10.2-5.1,21.4-7.8,32.8-7.8c11.5-0.1,22.8,2.6,33.1,7.9
		c10.1,5.2,18.7,12.8,25,22.2c6.3,10.2,9.6,21.9,9.4,33.9l-0.5,81.4H526V115.6z"/>
	<path class="st0" d="M710.4,126.4c0.1,12.4-3.3,24.6-9.8,35.2c-6.5,10.8-15.8,19.6-26.7,25.8c-11,6.4-23.5,9.7-36.3,9.7
		c-26,0-50-13.9-62.9-36.5c-6.6-10.9-10.1-23.5-9.9-36.3c-0.1-12.8,3.3-25.4,9.8-36.4c6.4-11.1,15.6-20.3,26.7-26.7
		c11-6.4,23.5-9.8,36.3-9.7c15.2-0.1,30.1,4.7,42.5,13.7V16.2l30.1-16.1L710.4,126.4z M674.2,103.2c-3.8-6.4-9.1-11.8-15.5-15.7
		c-6.4-3.8-13.8-5.7-21.2-5.6c-7.4,0-14.7,2-21.1,5.8c-6.4,3.7-11.7,9-15.5,15.5c-4,6.4-6,13.7-5.9,21.2c0,7.4,2,14.7,5.8,21.1
		c3.7,6.4,9,11.7,15.5,15.5c6.4,4,13.7,6,21.2,5.9c7.4,0,14.7-2,21.1-5.8c6.4-3.8,11.8-9.1,15.7-15.5c3.8-6.4,5.7-13.8,5.6-21.2
		C680,116.8,678,109.5,674.2,103.2z"/>
	<path class="st0" d="M750.1,64.3c12.1-8.5,26.6-13,41.4-12.9c10.2,0,20.8,2.5,31.7,7.4c10.9,4.9,20.2,13,27.9,24.3
		c8.2,12.1,12.6,26.5,12.6,41.1c0,3.9-0.3,7.7-0.8,11.6l-0.5-0.3v0.3l-111.3,3c2.1,5.8,5.4,11.1,9.7,15.5c4.2,4.3,9.4,7.7,15,9.8
		c4.8,1.8,9.9,2.7,15,2.7c6.1,0,12-1.2,17.6-3.6c5.5-2.3,10.4-5.9,14.4-10.3l29.3,11.3c-6.6,10.2-15.6,18.5-26.3,24.2
		c-10.7,5.9-22.7,8.9-34.9,8.9c-10.4,0-21-2.5-31.8-7.4c-10.8-4.9-20.1-13.1-27.8-24.6c-8.4-12.1-12.9-26.4-12.9-41.1
		c0-8.8,1.7-17.6,4.8-25.8C728.5,84.4,737.9,72.6,750.1,64.3z M750.9,110.8l79.8-1.9c-2-5.5-5.1-10.5-9.3-14.6
		c-8-7.9-18.7-12.3-30-12.2c-8.6-0.1-17,2.5-24.2,7.3c-7.3,4.8-12.8,11.7-15.9,19.9L750.9,110.8z"/>
	<path class="st0" d="M951.7,83.4c-3.2-0.4-5.3-0.5-6.2-0.5c-7.4,0-14.7,2-21.1,5.8c-6.4,3.7-11.7,9-15.5,15.5
		c-4,6.4-6,13.7-5.9,21.2l0.5,72.3h-31.4l-0.3-77.1c-0.1-12.5,3.3-24.7,9.8-35.3c13.4-21.9,37.3-35.3,63-35.3l7,0.5L951.7,83.4z"/>
	<path class="st0" d="M1039.5,83.4c-3.2-0.4-5.3-0.5-6.2-0.5c-7.4,0-14.7,2-21.1,5.8c-6.4,3.7-11.7,9-15.5,15.5
		c-4,6.4-6,13.7-5.9,21.2l0.5,72.3H960l-0.3-77.1c-0.1-12.5,3.3-24.7,9.8-35.3c13.4-21.9,37.3-35.3,63-35.3l7,0.5L1039.5,83.4z"/>
	<path class="st0" d="M1162.9,183.1c-12.3,9-27.2,13.8-42.5,13.7c-26,0-50-13.9-62.9-36.5c-6.6-10.9-10.1-23.5-9.9-36.3
		c-0.1-12.8,3.3-25.4,9.8-36.4c6.4-11.1,15.6-20.3,26.7-26.7c11-6.4,23.5-9.8,36.3-9.7c12.7-0.1,25.1,3.2,36.1,9.5
		c11,6.1,20.2,15,26.7,25.7c6.6,10.7,10,23,9.9,35.5L1193,196h-30.1L1162.9,183.1z M1157.1,102.9c-3.8-6.4-9.1-11.8-15.5-15.7
		c-6.4-3.8-13.8-5.7-21.2-5.6c-7.4,0-14.7,2-21.1,5.8c-6.4,3.7-11.7,9-15.5,15.5c-4,6.4-6,13.7-5.9,21.2c0,7.4,2,14.7,5.8,21.1
		c3.7,6.4,9,11.7,15.5,15.5c6.4,4,13.7,6,21.2,5.9c7.4,0,14.7-2,21.1-5.8c6.4-3.8,11.8-9.1,15.7-15.5c3.8-6.4,5.7-13.8,5.6-21.2
		C1162.9,116.6,1160.9,109.3,1157.1,102.9z"/>
	<path class="st0" d="M1206.7,0.4l35.2,17.6v26.2h32.2l-8.3,31.2h-23.9v121.2h-35.2V0.4z"/>
	<path class="st0" d="M1299.1,64.3c12.1-8.5,26.6-13,41.4-12.9c10.2,0,20.8,2.5,31.7,7.4c10.9,4.9,20.2,13,27.9,24.3
		c8.2,12.1,12.6,26.5,12.6,41.1c0,3.9-0.3,7.7-0.8,11.6l-0.5-0.3v0.3l-111.3,3c2.1,5.8,5.4,11.1,9.7,15.5c4.2,4.3,9.4,7.7,15,9.8
		c4.8,1.8,9.9,2.7,15,2.7c6.1,0,12-1.2,17.6-3.6c5.5-2.3,10.4-5.9,14.4-10.3l29.3,11.3c-6.6,10.2-15.6,18.5-26.3,24.2
		c-10.7,5.9-22.7,8.9-34.9,8.9c-10.4,0-21-2.5-31.8-7.4c-10.8-4.9-20.1-13.1-27.8-24.6c-8.4-12.1-12.9-26.4-12.9-41.1
		c0-8.8,1.7-17.6,4.8-25.8C1277.5,84.4,1286.9,72.6,1299.1,64.3z M1299.9,110.8l79.8-1.9c-2-5.5-5.1-10.5-9.3-14.6
		c-8-7.9-18.8-12.3-30-12.2c-8.6-0.1-17,2.5-24.2,7.3c-7.3,4.8-12.8,11.7-15.9,19.9L1299.9,110.8z"/>
	<path class="st1" d="M12.6,126.2L12.6,126.2C6.2,126.2,1,121,1,114.6V82.3c0-6.4,5.2-11.6,11.6-11.6l0,0c6.4,0,11.6,5.2,11.6,11.6
		v32.3C24.3,121,19.1,126.2,12.6,126.2C12.7,126.2,12.6,126.2,12.6,126.2z"/>
	<path class="st1" d="M53.5,180.4L53.5,180.4c-6.4,0-11.6-5.2-11.6-11.6V28.2c0-6.4,5.2-11.6,11.6-11.6l0,0
		c6.4,0,11.6,5.2,11.6,11.6v140.6C65.2,175.1,60,180.4,53.5,180.4C53.5,180.4,53.5,180.4,53.5,180.4z"/>
	<path class="st1" d="M94.4,156.6L94.4,156.6c-6.4,0-11.6-5.2-11.6-11.6V51.9c0-6.4,5.2-11.6,11.6-11.6l0,0
		c6.4,0,11.6,5.2,11.6,11.6V145C106,151.4,100.8,156.6,94.4,156.6C94.4,156.6,94.4,156.6,94.4,156.6z"/>
	<path class="st1" d="M135.3,195.9L135.3,195.9c-6.4,0-11.6-5.2-11.6-11.6V12.6c0-6.4,5.2-11.6,11.6-11.6l0,0
		c6.4,0,11.6,5.2,11.6,11.6v171.7C146.9,190.7,141.7,195.9,135.3,195.9z"/>
	<path class="st1" d="M176.1,156.6L176.1,156.6c-6.4,0-11.6-5.2-11.6-11.6V51.9c0-6.4,5.2-11.6,11.6-11.6l0,0
		c6.4,0,11.6,5.2,11.6,11.6V145C187.8,151.4,182.6,156.6,176.1,156.6z"/>
	<path class="st1" d="M215.5,126.2L215.5,126.2c-6.4,0-11.6-5.2-11.6-11.6V82.3c0-6.4,5.2-11.6,11.6-11.6l0,0
		c6.4,0,11.6,5.2,11.6,11.6v32.3C227.1,121,221.9,126.2,215.5,126.2z"/>
</g>
</svg>
